<?xml version="1.0" encoding="UTF-8"?>
<svg id="Layer_1" data-name="Layer 1" xmlns="http://www.w3.org/2000/svg" viewBox="0 0 9223.07 794.62">
  <defs>
    <style>
      .cls-1 {
        fill: #fff;
      }
    </style>
  </defs>
  <g>
    <path class="cls-1" d="M1515.76,794.1v-135.02h579.01c36.35,0,63.87-9.35,83.61-27.52,19.73-18.18,29.08-43.1,29.08-73.22,0-33.23-9.87-58.16-29.08-74.78-19.73-16.62-47.26-24.93-83.61-24.93h-355.19c-36.35,0-69.07-5.71-98.15-16.62-29.6-10.91-54.01-25.96-74.26-45.7-20.25-19.73-35.83-42.58-46.74-69.58-10.91-27-16.62-56.08-16.62-88.28s5.19-60.24,15.58-86.72c10.39-26.48,25.44-49.33,45.7-68.55,20.25-19.21,45.18-34.27,74.78-45.18,29.6-10.91,63.87-16.62,101.78-16.62h554.6V156.41h-554.6c-31.16,0-55.05,8.31-72.18,24.93-17.14,16.62-25.44,39.99-25.44,69.58s8.83,52.97,25.96,69.07c17.14,16.1,41.02,24.41,70.62,24.41h354.16c78.41,0,138.13,18.18,179.16,55.05,40.5,36.87,61.28,92.95,61.28,167.73,0,32.72-5.19,62.83-15.06,90.36-9.87,27.52-24.93,51.41-44.66,71.66-19.73,20.25-44.66,35.83-74.78,47.26-30.12,11.42-65.43,17.14-105.93,17.14l-579.01,.52h0Z"/>
    <path class="cls-1" d="M2698.71,794.1V156.41h-293.4V21.39h721.81V156.41h-293.4V794.1h-135.02Z"/>
    <path class="cls-1" d="M3876.46,794.1l-115.8-194.73h-365.58l63.87-109.57h236.8l-172.41-289.24-350.52,593.03h-154.23L3462.58,54.11c7.79-13.5,17.14-23.89,27.52-31.68s23.37-11.94,38.43-11.94,27.52,4.15,37.91,11.94c10.39,7.79,19.21,18.18,27,31.68l445.55,739.47h-162.54v.52Z"/>
    <path class="cls-1" d="M4120.52,794.1V21.39h565.51c37.39,0,71.66,4.15,102.82,12.98,30.64,8.31,57.12,21.29,78.93,37.91s38.95,37.39,50.89,62.83c11.94,24.93,18.18,54.01,18.18,86.72,0,24.93-2.6,46.22-8.31,64.91-5.71,18.18-13.5,34.27-23.37,47.26-9.87,12.98-21.29,23.89-34.79,32.72-12.98,8.83-27,15.58-41.02,19.73,35.31,11.42,64.39,31.68,87.24,61.8,22.85,29.6,33.75,67.51,33.75,112.69,0,35.31-5.71,67.51-17.66,96.07-11.94,28.56-28.56,53.49-49.85,73.74-21.81,20.77-47.78,36.35-78.41,47.26-30.64,10.91-64.91,16.62-102.3,16.62h-581.61v-.52h0Zm232.64-335.98v-113.72h333.9c38.43,0,66.47-7.27,85.16-21.29,18.18-14.02,27.52-38.43,27.52-72.18,0-20.77-4.15-36.87-11.94-49.33-7.79-12.46-19.21-21.81-33.23-28.56-14.54-6.75-31.68-10.91-51.93-13.5-20.25-2.08-42.58-3.12-67.51-3.12h-379.6v503.71h391.02c23.89,0,46.22-1.56,66.99-5.19,20.77-3.63,38.43-9.35,52.97-17.66,15.06-8.31,26.48-18.69,34.79-31.16,8.31-12.98,12.46-28.56,12.46-47.77,0-31.68-9.87-56.6-29.6-73.74-19.73-17.14-48.81-25.96-87.24-25.96h-343.77v-.52h0Z"/>
    <path class="cls-1" d="M5068.75,794.1V21.39h135.02V659.08h519.81v135.02h-654.83Z"/>
    <path class="cls-1" d="M5820.16,794.1V21.39h689.62V156.41h-555.64v502.67h556.68v135.02h-690.66Zm232.64-335.98v-113.72h428.41v113.72h-428.41Z"/>
  </g>
  <g>
    <path class="cls-1" d="M6637.53,794.1V21.39h72.18V722.95h559.28v71.14h-631.46Z"/>
    <path class="cls-1" d="M8232.79,794.1l-130.86-220.18h-446.59l35.31-61.8h373.89l-240.43-401.93-408.16,683.39h-82.05L7790.87,33.86c8.31-15.06,19.21-23.37,36.35-23.37,15.06,0,25.44,8.31,35.31,23.37l455.94,759.72-85.68,.52h0Z"/>
    <path class="cls-1" d="M8422.85,794.1V21.39h554.6c141.25,0,231.6,68.03,231.6,196.81,0,106.45-58.68,160.46-144.36,175.52,92.43,15.06,158.38,76.34,158.38,185.91,0,122.03-88.28,214.47-236.8,214.47h-563.43Zm172.93-359.35v-66.99h384.79c98.67,0,156.31-42.58,156.31-137.09,0-99.7-70.1-137.09-185.91-137.09h-456.98V722.95h460.09c117.88,0,196.81-56.08,196.81-145.4,0-95.55-63.87-142.29-172.41-142.29h-382.72v-.52Z"/>
  </g>
  <path class="cls-1" d="M1263.55,724.14h-438.75v-21.76h423.11l-8.24-11.39-39.52-54.74-137.35-1.19-179.17-2.46c4.16-9.86,3.57-22.18-1.53-31.11-4.42-7.73-10.03-12.66-18.44-16.06-6.03-2.46-18.87-2.72-24.9-.42-4.33,1.7-8.33,3.99-11.73,6.88l-2.8-257.71-1.53-220.9-67.49-91.88h-18.87l-66.47,.76V592.65l-.17-16.74c-.51-54.82-.68-56.35-6.29-78.11-6.54-25.5-20.82-53.55-39.1-76.75-36.29-46.24-91.54-82.79-145.77-96.47-20.82-5.18-18.61-5.1-127.58-5.1-86.7,0-100.29-.17-105.99-1.36-26.01-5.18-44.54-21.08-52.44-44.96-2.8-8.16-3.74-22.78-2.21-32.55,3.4-21.76,18.87-41.22,39.86-50.15,12.83-5.52,6.12-5.27,144.83-5.27h273.09V22.16h-22.78c-19.72,.17-116.95,.42-216.06,.68-99.1,.25-180.62,.68-181.04,1.02-.51,.25-4.16,.93-8.07,1.44-12.75,1.7-31.36,6.37-44.62,11.22-21.33,7.9-46.41,22.1-65.02,36.97-9.26,7.39-31.19,29.32-38.59,38.59-20.14,25.24-35.36,56.01-42.07,85-3.74,16.32-6.03,33.74-6.03,46.49v7.9h56.01c30.85,0,56.27,.34,56.52,.68,.26,.42,.85,4.76,1.27,9.69,1.7,17.59,4.42,27.2,11.98,42.75,13.6,27.62,37.82,48.45,69.19,59.41l7.73,2.72,.26,8.33,.26,8.33-3.23-.59c-9.43-1.78-29.32-9.77-41.48-16.74-44.54-25.58-67.66-53.55-73.27-88.57l-1.44-9.01H0l.08,8.24c.17,24.82,6.12,53.04,16.4,77.86,8.75,21.16,20.82,40.54,37.14,59.67,8.07,9.52,24.31,25.33,33.91,32.98,16.66,13.43,39.69,27.03,57.8,34.17,7.56,2.97,10.37,3.91,21.84,7.56,12.15,3.82,38.76,8.16,49.89,8.16,2.97,0,6.46,.34,7.65,.85l2.21,.85v86.02l-2.8,2.72c-5.52,5.18-9.43,11.3-11.47,17.85-1.7,5.35-1.78,17.76-.26,21.59,2.38,5.69,8.5,5.27-80.66,5.27H51v162.34l134.55-.08c73.95-.08,161.66-.42,194.81-.76,55.25-.59,61.28-.85,70.97-2.46,34.59-5.69,63.66-17.17,91.37-35.95,23.71-16.15,47.77-39.61,63.49-62.05,2.97-4.16,5.78-8.24,6.29-8.92,.76-1.19,1.53-.85,5.52,2.38,2.55,2.04,7.05,4.84,10.11,6.29,4.76,2.12,6.8,2.55,14.62,2.8,10.03,.42,14.62-.68,22.52-5.01,1.44-.85,2.97-1.95,4.59-3.4v104.8h642.82l-49.13-68.08Zm-434.33-112.53c2.29-6.12,7.31-11.05,13.94-13.6,3.74-1.44,11.64-1.27,15.38,.26,5.18,2.12,8.67,5.18,11.39,9.94,3.23,5.61,3.57,13.43,.85,19.55-.94,2.21-1.7,3.65-2.89,4.67l-35.1-.51c-3.91-4.67-5.69-14.45-3.57-20.31Zm-557.23,14.11c-2.8,6.37-3.4,6.54-20.57,6.54-14.19,0-15.21-.08-16.91-1.78-4.33-4.33-6.37-14.79-4.08-20.91s7.31-11.05,13.94-13.6c3.74-1.44,11.64-1.27,15.38,.26,5.18,2.12,8.67,5.18,11.39,9.94,3.23,5.61,3.57,13.43,.85,19.55Zm206.2-43.6c-5.27,18.1-19.04,34.51-36.12,42.92-12.75,6.29-10.54,6.12-84.23,6.37-36.21,.17-66.38,.17-66.89,.08-1.36-.08-1.44-2.97-.17-5.27,1.36-2.63,1.19-15.04-.34-20.14-1.87-6.29-5.69-12.66-10.28-17.17l-3.91-3.74v-43.01c0-23.71,.26-43.35,.59-43.6,.26-.34,33.23-.59,73.27-.59,70.12,0,73.01,.08,79.56,1.7,22.69,5.78,41.99,24.31,48.53,46.75,2.29,7.82,2.21,27.79,0,35.7Zm142.28-17.76l-13.34-.26-13.43-.26-.59-8.5c-2.72-39.95-14.11-70.38-37.14-99.28-28.3-35.44-66.81-58.65-109.73-66.04-15.98-2.8-30.6-3.23-99.96-2.72-36.04,.25-66.55,.17-67.83-.17-2.21-.51-2.21-.68-2.21-8.07,0-4.08,.26-7.73,.59-7.99,.26-.34,39.52-.59,87.12-.59,74.46,0,87.72,.17,94.86,1.36,36.72,5.86,70.72,24.65,104.63,57.71,30.43,29.66,47.68,59.92,54.91,96.13,1.78,8.92,2.12,13.26,2.12,24.73v13.94Zm43.77,102.67c-7.73,13.94-27.96,15.81-37.23,3.31-3.4-4.59-3.31-5.35,.26-13.77,1.78-4.33,4.16-10.2,5.18-12.92,2.29-6.2,2.89-6.97,6.2-7.9,3.99-1.19,8.24-1.1,12.92,.34,13,3.82,19.21,19.04,12.66,30.94Z"/>
</svg>